<?xml version="1.0" standalone="no"?>
<!DOCTYPE svg PUBLIC "-//W3C//DTD SVG 20010904//EN"
 "http://www.w3.org/TR/2001/REC-SVG-20010904/DTD/svg10.dtd">
<svg version="1.0" xmlns="http://www.w3.org/2000/svg"
 width="400.000000pt" height="400.000000pt" viewBox="0 0 400.000000 400.000000"
 preserveAspectRatio="xMidYMid meet">
<metadata>
Created by potrace 1.11, written by Peter Selinger 2001-2013
</metadata>
<g transform="translate(0.000000,400.000000) scale(0.100000,-0.100000)"
fill="#000000" stroke="none">
<path d="M1310 2271 c-128 -42 -201 -146 -194 -278 4 -62 21 -106 59 -151 73
-86 180 -115 301 -82 71 20 147 98 169 173 18 64 14 141 -12 195 -22 46 -87
109 -132 128 -42 18 -155 27 -191 15z m160 -121 c105 -75 83 -254 -36 -295
-134 -46 -246 100 -181 235 41 85 143 113 217 60z"/>
<path d="M1925 2271 c-75 -19 -139 -71 -175 -141 -33 -63 -33 -176 -1 -239 78
-151 276 -192 414 -87 20 16 37 32 37 36 0 4 -15 23 -34 43 l-34 36 -21 -20
c-33 -31 -82 -47 -130 -44 -47 4 -82 25 -115 69 -29 38 -29 134 0 172 52 70
130 92 201 55 23 -11 48 -27 56 -36 14 -13 19 -11 46 22 38 46 38 54 4 80 -71
52 -172 74 -248 54z"/>
<path d="M3470 2259 c-59 -26 -83 -60 -87 -123 -6 -70 18 -113 78 -143 26 -12
55 -24 65 -26 50 -9 106 -32 114 -47 13 -24 2 -56 -23 -67 -32 -14 -102 2
-150 36 l-43 29 -33 -40 c-32 -38 -32 -40 -15 -59 50 -55 191 -89 274 -65 73
20 128 103 117 175 -11 66 -57 103 -172 136 -76 23 -95 35 -95 61 0 52 81 64
158 25 24 -12 45 -21 46 -19 1 2 14 20 29 40 l27 37 -28 19 c-71 49 -189 63
-262 31z"/>
<path d="M223 2010 l0 -261 148 2 c127 1 154 4 189 21 48 24 73 66 74 124 0
49 -21 85 -64 106 l-32 15 25 19 c34 27 44 53 42 102 -4 97 -67 129 -256 131
l-126 2 0 -261z m253 139 c11 -12 14 -27 9 -48 -4 -17 -10 -31 -13 -32 -4 0
-16 -2 -26 -4 -22 -4 -75 -8 -93 -6 -9 1 -13 19 -13 57 l0 55 60 -2 c43 -2 64
-7 76 -20z m16 -194 c35 -14 28 -87 -10 -99 -17 -6 -97 -10 -129 -7 -9 1 -13
20 -13 61 l0 59 68 -3 c37 -2 74 -7 84 -11z"/>
<path d="M732 2008 l0 -258 169 0 169 0 0 50 c0 43 -3 50 -20 51 -11 0 -60 1
-110 1 l-90 1 0 208 0 209 -60 -2 -59 -2 1 -258z"/>
<path d="M2290 2063 l0 -207 25 35 c13 19 28 39 32 44 58 74 63 90 63 215 l0
120 -60 0 -60 0 0 -207z"/>
<path d="M2617 2238 c-31 -42 -298 -424 -321 -460 l-18 -28 66 0 65 0 50 70
49 70 53 -61 c30 -33 56 -65 60 -70 3 -6 38 -9 78 -7 72 3 72 3 54 23 -10 11
-38 45 -63 75 -25 30 -53 64 -64 75 -53 58 -54 55 20 162 37 54 77 112 89 128
41 56 41 55 -29 55 -62 0 -66 -2 -89 -32z"/>
<path d="M2847 2263 c-2 -5 -3 -84 -2 -178 2 -181 11 -223 58 -273 77 -83 235
-88 320 -10 56 52 67 102 67 299 l0 170 -57 -3 -57 -3 -1 -165 c-2 -173 -7
-198 -49 -232 -26 -22 -84 -23 -114 -2 -41 28 -46 53 -48 209 -2 83 -3 160 -3
173 -1 20 -6 22 -55 22 -30 0 -57 -3 -59 -7z"/>
</g>
</svg>
